<?xml version="1.0" encoding="UTF-8" standalone="no"?>
<!-- Generator: Gravit.io --><svg xmlns="http://www.w3.org/2000/svg" xmlns:xlink="http://www.w3.org/1999/xlink"
    style="isolation:isolate" viewBox="0 0 32 32" width="32pt" height="32pt">
    <defs>
        <clipPath id="_clipPath_FOYP9WM99zg3rFafcZEQKSpFJou8FK8D">
            <rect width="32" height="32" />
        </clipPath>
    </defs>
    <g clip-path="url(#_clipPath_FOYP9WM99zg3rFafcZEQKSpFJou8FK8D)">
        <path d=" M 22.667 0 L 2.667 0 L 2.667 32 L 29.333 32 L 29.333 6.667 L 29.333 6.667 L 22.667 0 Z "
            fill="rgb(93,93,93)" />
        <path d=" M 29.333 6.667 L 22.667 0 L 22.667 6.667 L 29.333 6.667 Z " fill="rgb(70,70,70)" />
        <path
            d=" M 12.387 12.665 L 15.929 12.665 L 15.929 10.827 L 6.667 10.827 L 6.667 12.665 L 10.162 12.665 L 10.162 22.514 L 12.387 22.514 L 12.387 12.665 Z  M 23.148 19.464 L 23.148 19.464 L 23.148 19.464 Q 23.148 19.777 23.022 20.038 L 23.022 20.038 L 23.022 20.038 Q 22.895 20.299 22.659 20.483 L 22.659 20.483 L 22.659 20.483 Q 22.422 20.668 22.079 20.772 L 22.079 20.772 L 22.079 20.772 Q 21.736 20.877 21.294 20.877 L 21.294 20.877 L 21.294 20.877 Q 20.797 20.877 20.383 20.764 L 20.383 20.764 L 20.383 20.764 Q 19.968 20.652 19.677 20.411 L 19.677 20.411 L 19.677 20.411 Q 19.377 20.17 19.211 19.793 L 19.211 19.793 L 19.211 19.793 Q 19.045 19.416 19.03 18.886 L 19.03 18.886 L 16.852 18.886 L 16.852 18.886 Q 16.852 19.793 17.195 20.467 L 17.195 20.467 L 17.195 20.467 Q 17.538 21.142 18.13 21.639 L 18.13 21.639 L 18.13 21.639 Q 18.753 22.145 19.594 22.406 L 19.594 22.406 L 19.594 22.406 Q 20.434 22.667 21.294 22.667 L 21.294 22.667 L 21.294 22.667 Q 22.17 22.667 22.911 22.454 L 22.911 22.454 L 22.911 22.454 Q 23.653 22.241 24.189 21.824 L 24.189 21.824 L 24.189 21.824 Q 24.726 21.414 25.03 20.816 L 25.03 20.816 L 25.03 20.816 Q 25.333 20.219 25.333 19.448 L 25.333 19.448 L 25.333 19.448 Q 25.333 18.557 24.931 17.875 L 24.931 17.875 L 24.931 17.875 Q 24.529 17.192 23.85 16.679 L 23.85 16.679 L 23.85 16.679 Q 23.4 16.366 22.864 16.125 L 22.864 16.125 L 22.864 16.125 Q 22.327 15.884 21.736 15.715 L 21.736 15.715 L 21.736 15.715 Q 21.183 15.563 20.746 15.386 L 20.746 15.386 L 20.746 15.386 Q 20.308 15.21 20 14.993 L 20 14.993 L 20 14.993 Q 19.692 14.784 19.531 14.52 L 19.531 14.52 L 19.531 14.52 Q 19.369 14.255 19.369 13.926 L 19.369 13.926 L 19.369 13.926 Q 19.369 13.612 19.491 13.344 L 19.491 13.344 L 19.491 13.344 Q 19.613 13.075 19.85 12.874 L 19.85 12.874 L 19.85 12.874 Q 20.087 12.681 20.43 12.573 L 20.43 12.573 L 20.43 12.573 Q 20.773 12.465 21.215 12.465 L 21.215 12.465 L 21.215 12.465 Q 21.696 12.465 22.055 12.597 L 22.055 12.597 L 22.055 12.597 Q 22.414 12.73 22.659 12.962 L 22.659 12.962 L 22.659 12.962 Q 22.895 13.203 23.018 13.532 L 23.018 13.532 L 23.018 13.532 Q 23.14 13.861 23.156 14.255 L 23.156 14.255 L 25.318 14.255 L 25.318 14.255 Q 25.318 13.468 25.018 12.81 L 25.018 12.81 L 25.018 12.81 Q 24.718 12.152 24.181 11.67 L 24.181 11.67 L 24.181 11.67 Q 23.645 11.196 22.899 10.932 L 22.899 10.932 L 22.899 10.932 Q 22.154 10.667 21.254 10.667 L 21.254 10.667 L 21.254 10.667 Q 20.387 10.667 19.645 10.895 L 19.645 10.895 L 19.645 10.895 Q 18.903 11.124 18.359 11.55 L 18.359 11.55 L 18.359 11.55 Q 17.815 11.975 17.507 12.577 L 17.507 12.577 L 17.507 12.577 Q 17.199 13.179 17.199 13.918 L 17.199 13.918 L 17.199 13.918 Q 17.199 14.56 17.432 15.105 L 17.432 15.105 L 17.432 15.105 Q 17.665 15.651 18.122 16.101 L 18.122 16.101 L 18.122 16.101 Q 18.58 16.55 19.302 16.928 L 19.302 16.928 L 19.302 16.928 Q 20.024 17.305 20.978 17.57 L 20.978 17.57 L 20.978 17.57 Q 21.594 17.738 22.008 17.935 L 22.008 17.935 L 22.008 17.935 Q 22.422 18.132 22.682 18.364 L 22.682 18.364 L 22.682 18.364 Q 22.935 18.605 23.041 18.878 L 23.041 18.878 L 23.041 18.878 Q 23.148 19.151 23.148 19.464 Z "
            fill="rgb(116,116,116)" />
        <path d=" M 2.667 28 L 2.667 30.667 L 0.085 28 L 2.667 28 Z " fill="rgb(70,70,70)" />
        <path d=" M 0 20 L 32 20 L 26.667 28 L 0 28 L 0 20 Z " fill="rgb(46,46,46)" />
        <path
            d=" M 7.664 22.054 L 6.956 23.45 L 6.26 22.054 L 5.363 22.054 L 6.481 23.985 L 5.333 25.949 L 6.24 25.949 L 6.967 24.531 L 7.697 25.949 L 8.593 25.949 L 7.445 23.985 L 8.566 22.054 L 7.664 22.054 Z  M 11.653 25.342 L 9.79 25.342 L 9.79 22.054 L 9.019 22.054 L 9.019 25.949 L 11.653 25.949 L 11.653 25.342 Z  M 14.391 24.932 L 14.391 24.932 L 14.391 24.932 Q 14.391 25.037 14.347 25.124 L 14.347 25.124 L 14.347 25.124 Q 14.303 25.211 14.221 25.272 L 14.221 25.272 L 14.221 25.272 Q 14.139 25.334 14.02 25.369 L 14.02 25.369 L 14.02 25.369 Q 13.902 25.403 13.749 25.403 L 13.749 25.403 L 13.749 25.403 Q 13.577 25.403 13.433 25.366 L 13.433 25.366 L 13.433 25.366 Q 13.29 25.328 13.189 25.248 L 13.189 25.248 L 13.189 25.248 Q 13.085 25.168 13.027 25.042 L 13.027 25.042 L 13.027 25.042 Q 12.97 24.916 12.964 24.74 L 12.964 24.74 L 12.21 24.74 L 12.21 24.74 Q 12.21 25.042 12.329 25.267 L 12.329 25.267 L 12.329 25.267 Q 12.448 25.492 12.653 25.658 L 12.653 25.658 L 12.653 25.658 Q 12.869 25.826 13.16 25.913 L 13.16 25.913 L 13.16 25.913 Q 13.451 26 13.749 26 L 13.749 26 L 13.749 26 Q 14.052 26 14.309 25.929 L 14.309 25.929 L 14.309 25.929 Q 14.566 25.858 14.751 25.719 L 14.751 25.719 L 14.751 25.719 Q 14.937 25.583 15.042 25.383 L 15.042 25.383 L 15.042 25.383 Q 15.148 25.184 15.148 24.927 L 15.148 24.927 L 15.148 24.927 Q 15.148 24.63 15.008 24.403 L 15.008 24.403 L 15.008 24.403 Q 14.869 24.175 14.634 24.004 L 14.634 24.004 L 14.634 24.004 Q 14.478 23.9 14.292 23.819 L 14.292 23.819 L 14.292 23.819 Q 14.107 23.739 13.902 23.683 L 13.902 23.683 L 13.902 23.683 Q 13.71 23.632 13.559 23.573 L 13.559 23.573 L 13.559 23.573 Q 13.407 23.514 13.301 23.442 L 13.301 23.442 L 13.301 23.442 Q 13.194 23.373 13.138 23.284 L 13.138 23.284 L 13.138 23.284 Q 13.082 23.196 13.082 23.086 L 13.082 23.086 L 13.082 23.086 Q 13.082 22.982 13.124 22.892 L 13.124 22.892 L 13.124 22.892 Q 13.167 22.803 13.249 22.736 L 13.249 22.736 L 13.249 22.736 Q 13.331 22.672 13.449 22.635 L 13.449 22.635 L 13.449 22.635 Q 13.568 22.599 13.721 22.599 L 13.721 22.599 L 13.721 22.599 Q 13.888 22.599 14.012 22.643 L 14.012 22.643 L 14.012 22.643 Q 14.137 22.688 14.221 22.765 L 14.221 22.765 L 14.221 22.765 Q 14.303 22.845 14.346 22.955 L 14.346 22.955 L 14.346 22.955 Q 14.388 23.065 14.393 23.196 L 14.393 23.196 L 15.142 23.196 L 15.142 23.196 Q 15.142 22.934 15.038 22.714 L 15.038 22.714 L 15.038 22.714 Q 14.934 22.495 14.749 22.334 L 14.749 22.334 L 14.749 22.334 Q 14.563 22.177 14.305 22.088 L 14.305 22.088 L 14.305 22.088 Q 14.046 22 13.735 22 L 13.735 22 L 13.735 22 Q 13.434 22 13.178 22.076 L 13.178 22.076 L 13.178 22.076 Q 12.921 22.153 12.732 22.294 L 12.732 22.294 L 12.732 22.294 Q 12.544 22.436 12.437 22.637 L 12.437 22.637 L 12.437 22.637 Q 12.331 22.837 12.331 23.084 L 12.331 23.084 L 12.331 23.084 Q 12.331 23.298 12.411 23.48 L 12.411 23.48 L 12.411 23.48 Q 12.492 23.662 12.65 23.811 L 12.65 23.811 L 12.65 23.811 Q 12.809 23.961 13.059 24.087 L 13.059 24.087 L 13.059 24.087 Q 13.309 24.213 13.639 24.301 L 13.639 24.301 L 13.639 24.301 Q 13.852 24.357 13.996 24.423 L 13.996 24.423 L 13.996 24.423 Q 14.139 24.488 14.23 24.566 L 14.23 24.566 L 14.23 24.566 Q 14.317 24.646 14.354 24.737 L 14.354 24.737 L 14.354 24.737 Q 14.391 24.828 14.391 24.932 Z  M 17.738 22.054 L 17.03 23.45 L 16.333 22.054 L 15.437 22.054 L 16.555 23.985 L 15.407 25.949 L 16.314 25.949 L 17.041 24.531 L 17.77 25.949 L 18.667 25.949 L 17.519 23.985 L 18.639 22.054 L 17.738 22.054 Z "
            fill="rgb(232,232,232)" />
    </g>
</svg>